<svg xmlns="http://www.w3.org/2000/svg" viewBox="0 0 512 512" id="property-management"><path d="M360.261 115.078V8a8 8 0 0 1 8-8H484.08a8 8 0 0 1 0 16H376.261v91.078h99.819V70.349l-21.834 19.815a7.978 7.978 0 0 1-5.375 2.076 7.98 7.98 0 0 1-5.658-2.343l-22.699-22.699a8 8 0 1 1 11.313-11.313l17.31 17.31 49.487-44.911a8 8 0 0 1 10.753 11.849L492.08 55.829v59.25a8 8 0 0 1-8 8H368.261a8.001 8.001 0 0 1-8-8.001zm138.363 107.666-49.487 44.911-17.31-17.31a8 8 0 1 0-11.313 11.313l22.699 22.699a7.98 7.98 0 0 0 5.658 2.343 7.975 7.975 0 0 0 5.375-2.076l21.834-19.815v36.729h-99.819V210.46H484.08a8 8 0 0 0 0-16H368.261a8 8 0 0 0-8 8v107.078a8 8 0 0 0 8 8H484.08a8 8 0 0 0 8-8v-59.105c0-.047-.006-.091-.007-.138l17.303-15.703a8 8 0 1 0-10.752-11.848zm0 194.461-49.487 44.91-17.31-17.31a8 8 0 1 0-11.313 11.313l22.699 22.699a7.98 7.98 0 0 0 5.658 2.343 7.975 7.975 0 0 0 5.375-2.076l21.835-19.815V496h-99.819v-91.079H484.08a8 8 0 0 0 0-16H368.261a8 8 0 0 0-8 8V504a8 8 0 0 0 8 8H484.08a8 8 0 0 0 8-8v-59.25l17.296-15.696a8 8 0 0 0-10.752-11.849zM337.404 264a8 8 0 0 0 0-16h-33.103V69.542l33.102.001a8 8 0 0 0 0-16l-41.102-.001a8 8 0 0 0-8 8V248h-26.757a8 8 0 0 0 0 16h26.757v186.458a8 8 0 0 0 8 8l41.102-.002a8 8 0 0 0 0-16l-33.102.001V264h33.103zm-96.711-28.777a24.29 24.29 0 0 1-4.346 18.2c-3.832 5.288-9.493 8.767-15.941 9.796a24.17 24.17 0 0 1-15.471-2.645v75.066c0 17.379-14.139 31.519-31.519 31.519H67.584c-17.379 0-31.519-14.14-31.519-31.519v-75.054a24.257 24.257 0 0 1-15.471 2.633 24.286 24.286 0 0 1-15.942-9.796c-3.832-5.288-5.375-11.751-4.346-18.2a24.294 24.294 0 0 1 9.796-15.942l96.044-69.78c8.765-6.351 20.425-6.243 29.052.252l95.706 69.534c5.28 3.826 8.759 9.487 9.789 15.936zm-105.397 45.039c0-1.66-1.403-3.063-3.063-3.063h-23.467c-1.66 0-3.063 1.403-3.063 3.063v70.896h29.593v-70.896zm53.638 55.377V249.23L120.5 199.51l-68.435 49.72v86.409c0 8.557 6.961 15.519 15.519 15.519h22.119v-70.896c0-10.511 8.552-19.063 19.063-19.063h23.467c10.511 0 19.063 8.552 19.063 19.063v70.896h22.119c8.558 0 15.519-6.962 15.519-15.519zm35.959-97.894a8.387 8.387 0 0 0-3.385-5.508l-95.774-69.584-.132-.098c-2.934-2.225-7.069-2.269-10.058-.104L19.5 232.231a8.4 8.4 0 0 0-3.393 5.514 8.393 8.393 0 0 0 1.501 6.289 8.393 8.393 0 0 0 5.508 3.385 8.381 8.381 0 0 0 6.282-1.497l86.399-62.772a7.986 7.986 0 0 1 4.702-1.528c1.65 0 3.3.509 4.702 1.528l86.4 62.774a8.38 8.38 0 0 0 6.281 1.496 8.39 8.39 0 0 0 5.508-3.385 8.392 8.392 0 0 0 1.503-6.29z"></path></svg>