<svg xmlns="http://www.w3.org/2000/svg" enable-background="new 0 0 48 48" viewBox="0 0 48 48" id="tea"><path d="M10.61 7.11c-.5-.25-1.09-.05-1.34.45-.14.27-1.28 2.69.19 4.15.34.34.04 1.39-.19 1.85-.25.49-.05 1.09.45 1.34.14.07.3.11.45.11.37 0 .72-.2.9-.55.14-.27 1.28-2.69-.19-4.15-.34-.34-.04-1.39.19-1.85C11.31 7.95 11.11 7.35 10.61 7.11zM21.17 7.11c-.5-.25-1.09-.05-1.34.45-.14.27-1.28 2.69.19 4.15.34.34.04 1.39-.19 1.85-.25.49-.05 1.09.45 1.34.14.07.3.11.45.11.37 0 .72-.2.9-.55.14-.27 1.28-2.69-.19-4.15-.34-.34-.04-1.39.19-1.85C21.86 7.95 21.66 7.35 21.17 7.11zM31.5 7.11c-.5-.25-1.1-.05-1.34.45-.14.27-1.28 2.69.19 4.15.34.34.04 1.39-.19 1.85-.25.49-.05 1.09.45 1.34.14.07.3.11.45.11.37 0 .72-.2.9-.55.14-.27 1.28-2.69-.19-4.15-.34-.34-.04-1.39.19-1.85C32.2 7.95 32 7.35 31.5 7.11zM5.5 19v10c0 4.63 2.09 8.93 5.73 11.79.04.03.1.05.15.08.04.02.07.05.11.06.11.04.23.07.36.07h17.3c.12 0 .24-.03.36-.07.04-.02.07-.04.11-.06.05-.03.1-.05.15-.08 3.38-2.65 5.4-6.54 5.68-10.79h2.06c2.76 0 5-2.24 5-5s-2.24-5-5-5h-2v-1c0-.55-.45-1-1-1h-28C5.95 18 5.5 18.45 5.5 19zM35.5 22h2c1.65 0 3 1.35 3 3s-1.35 3-3 3h-2V22zM14.5 23.62V27h-2v-3.38l1-.5L14.5 23.62zM7.5 20h5v1.38l-1.45.72c-.34.17-.55.52-.55.89v5c0 .55.45 1 1 1h4c.55 0 1-.45 1-1v-5c0-.38-.21-.72-.55-.89l-1.45-.72V20h19v1 8c0 3.9-1.71 7.52-4.7 10H12.2c-2.99-2.48-4.7-6.1-4.7-10V20z"></path></svg>