<svg xmlns="http://www.w3.org/2000/svg" width="128" height="128" data-name="Layer 1" id="chair"><path d="M100 54h2v22a3.86 3.86 0 0 1-3.695 4h-2.518a9.961 9.961 0 0 1-1.806 4h4.324A7.861 7.861 0 0 0 106 76V54h2a2 2 0 0 0 0-4h-8a2 2 0 0 0 0 4zm-80 0h2v22a7.861 7.861 0 0 0 7.695 8h4.325a9.963 9.963 0 0 1-1.807-4h-2.518A3.86 3.86 0 0 1 26 76V54h2a2 2 0 0 0 0-4h-8a2 2 0 0 0 0 4z"></path><path d="M36 62a6.007 6.007 0 0 0-6 6v2a6.007 6.007 0 0 0 6 6v2a6.007 6.007 0 0 0 6 6h9v3.778A4.515 4.515 0 0 0 55.75 92h1.852l-4.657 4H49a2 2 0 0 0 0 4h4.687a1.998 1.998 0 0 0 1.302-.483L62 93.495V104H47.806a6.02 6.02 0 0 0-4.386 1.906l-7.975 8.543a7.024 7.024 0 1 0 3.202 2.432l7.697-8.246a2.007 2.007 0 0 1 1.462-.635H62v6.295a7 7 0 1 0 4 0V108h14.194a2.007 2.007 0 0 1 1.462.635l7.697 8.246a7.031 7.031 0 1 0 3.202-2.432l-7.975-8.543A6.02 6.02 0 0 0 80.194 104H66V92h6.25A4.515 4.515 0 0 0 77 87.778V84h9a6.007 6.007 0 0 0 6-6v-2a6.007 6.007 0 0 0 6-6v-2a6.007 6.007 0 0 0-6-6H73v-4h1.077c10.242 0 15.296-5.38 17.732-9.894a25.758 25.758 0 0 0 2.89-9.878c1.52-16.826-2.976-27.004-7.015-32.581A13.695 13.695 0 0 0 76.624 0H51.369a13.694 13.694 0 0 0-11.06 5.648c-4.039 5.578-8.532 15.756-7.006 32.57A25.762 25.762 0 0 0 36.19 48.1c2.44 4.52 7.493 9.9 17.735 9.9H55v4Zm-3 62a3 3 0 1 1 3-3 3.003 3.003 0 0 1-3 3Zm62-6a3 3 0 1 1-3 3 3.003 3.003 0 0 1 3-3Zm-28 3a3 3 0 1 1-3-3 3.003 3.003 0 0 1 3 3Zm5.25-33h-16.5a1.313 1.313 0 0 1-.75-.222V84h18.006l.006 3.715a.946.946 0 0 1-.762.285ZM88 78a2.002 2.002 0 0 1-2 2H42a2.002 2.002 0 0 1-2-2v-2h48ZM53.925 54c-7.82 0-12.007-3.709-14.212-7.794a21.906 21.906 0 0 1-2.426-8.349c-1.442-15.885 2.852-25.154 6.262-29.863A9.65 9.65 0 0 1 51.369 4h25.255a9.651 9.651 0 0 1 7.82 3.993c3.41 4.709 7.707 13.978 6.272 29.864a21.905 21.905 0 0 1-2.427 8.35C86.084 50.29 81.897 54 74.077 54ZM69 58v4H59v-4Zm23 8a2.002 2.002 0 0 1 2 2v2a2.002 2.002 0 0 1-2 2H36a2.002 2.002 0 0 1-2-2v-2a2.002 2.002 0 0 1 2-2Z"></path><path d="M54 31h20a2 2 0 0 0 0-4H54a2 2 0 0 0 0 4zm2-10h16a2 2 0 0 0 0-4H56a2 2 0 0 0 0 4zm22 18a2 2 0 0 0-2-2H52a2 2 0 0 0 0 4h24a2 2 0 0 0 2-2z"></path></svg>