<svg xmlns="http://www.w3.org/2000/svg" viewBox="0 0 32 32" id="mute"><path d="M21.05 3.18A2 2 0 0 0 19 3.35L8.56 10.91l-3.44 0a3.06 3.06 0 0 0-3.12 3v4a3.07 3.07 0 0 0 3.13 3l3.43 0L19 28.62h0a2 2 0 0 0 1.19.39 2 2 0 0 0 .9-.21A2 2 0 0 0 22.14 27V5A2 2 0 0 0 21.05 3.18zM5.12 18.94a1.07 1.07 0 0 1-1.12-1v-4a1.06 1.06 0 0 1 1.13-1l2.76 0v6zm15 8.07L9.89 19.41v-7L20.14 5V27zM28.33 16l1.42-1.63a1 1 0 1 0-1.5-1.31L27 14.48l-1.25-1.42a1 1 0 1 0-1.5 1.31L25.67 16l-1.42 1.63A1 1 0 0 0 24.34 19a1 1 0 0 0 .66.25 1 1 0 0 0 .75-.35L27 17.52l1.25 1.42a1 1 0 0 0 .75.35 1 1 0 0 0 .66-.25 1 1 0 0 0 .09-1.41z"></path></svg>