<svg xmlns="http://www.w3.org/2000/svg" width="32" height="32" id="parking"><path style="line-height:normal;text-indent:0;text-align:start;text-decoration-line:none;text-decoration-style:solid;text-decoration-color:#000;text-transform:none;block-progression:tb;isolation:auto;mix-blend-mode:normal" fill="#34485c" d="M111.643 337.484a.5.5 0 0 0-.5.5v15a.5.5 0 0 0 .5.5h15a.5.5 0 0 0 .5-.5v-15l-.008.008a.5.5 0 0 0-.493-.507h-15zm.5 1h14v14h-14v-14z" color="#000" font-family="sans-serif" font-weight="400" overflow="visible" transform="translate(-104.143 -336.484)"></path><path style="line-height:normal;text-indent:0;text-align:start;text-decoration-line:none;text-decoration-style:solid;text-decoration-color:#000;text-transform:none;block-progression:tb;isolation:auto;mix-blend-mode:normal" fill="#34485c" d="M117.143 352.484v14h1v-14h-1zm3 0v14h1v-14h-1z" color="#000" font-family="sans-serif" font-weight="400" overflow="visible" transform="translate(-104.143 -336.484)"></path><g style="line-height:125%"><path style="-inkscape-font-specification:'Bebas Neue Bold'" fill="#25b39e" d="M119.314 340.362H117v10h1.571v-3.757h.743c1.572 0 2.343-.871 2.343-2.471v-1.3c0-1.6-.771-2.472-2.343-2.472zm0 1.429c.5 0 .772.228.772.943v1.5c0 .714-.272.942-.772.942h-.743v-3.385h.743z" font-family="Bebas Neue" font-size="14.286" font-weight="700" letter-spacing="0" transform="translate(-104.143 -336.484)" word-spacing="0"></path></g><path style="line-height:normal;text-indent:0;text-align:start;text-decoration-line:none;text-decoration-style:solid;text-decoration-color:#000;text-transform:none;block-progression:tb;isolation:auto;mix-blend-mode:normal" fill="#34485c" fill-rule="evenodd" d="M110.143 363.484v1h6v-1h-6zm-3 0v1h2v-1h-2zm19 0v1h1v-1h-1zm2 0v1h1v-1h-1zm-5 0v1h2v-1h-2zm4-3v1h4v-1h-4zm5 0v1h1v-1h-1z" color="#000" font-family="sans-serif" font-weight="400" overflow="visible" transform="translate(-104.143 -336.484)"></path></svg>